HIERARCHY
ROOT Hips
{
	OFFSET 0.000000 0.000000 0.000000
	CHANNELS 6 Xposition Yposition Zposition Zrotation Yrotation Xrotation 
	JOINT LHipJoint
	{
		OFFSET 0.000000 0.000000 0.000000
		CHANNELS 3 Zrotation Yrotation Xrotation
		JOINT LeftUpLeg
		{
			OFFSET 8.178360 -10.767780 5.035740
			CHANNELS 3 Zrotation Yrotation Xrotation
			JOINT LeftLeg
			{
				OFFSET 14.688660 -40.356780 0.000000
				CHANNELS 3 Zrotation Yrotation Xrotation
				JOINT LeftFoot
				{
					OFFSET 15.373200 -42.237540 0.000000
					CHANNELS 3 Zrotation Yrotation Xrotation
					JOINT LeftToeBase
					{
						OFFSET 0.945840 -2.598660 13.935300
						CHANNELS 3 Zrotation Yrotation Xrotation
						End Site
						{
							OFFSET 0.000000 0.000000 0.000000
						}
					}
				}
			}
		}
	}
	JOINT RHipJoint
	{
		OFFSET 0.000000 0.000000 0.000000
		CHANNELS 3 Zrotation Yrotation Xrotation
		JOINT RightUpLeg
		{
			OFFSET -7.833120 -10.767780 5.035740
			CHANNELS 3 Zrotation Yrotation Xrotation
			JOINT RightLeg
			{
				OFFSET -15.255180 -41.913300 0.000000
				CHANNELS 3 Zrotation Yrotation Xrotation
				JOINT RightFoot
				{
					OFFSET -15.409560 -42.337380 0.000000
					CHANNELS 3 Zrotation Yrotation Xrotation
					JOINT RightToeBase
					{
						OFFSET -0.988380 -2.715540 14.178900
						CHANNELS 3 Zrotation Yrotation Xrotation
						End Site
						{
							OFFSET 0.000000 0.000000 0.000000
						}
					}
				}
			}
		}
	}
	JOINT LowerBack
	{
		OFFSET 0.000000 0.000000 0.000000
		CHANNELS 3 Zrotation Yrotation Xrotation
		JOINT Spine
		{
			OFFSET 0.169620 12.213540 -1.160280
			CHANNELS 3 Zrotation Yrotation Xrotation
			JOINT Spine1
			{
				OFFSET 0.340320 12.293100 -0.256500
				CHANNELS 3 Zrotation Yrotation Xrotation
				JOINT Neck
				{
					OFFSET 0.000000 0.000000 0.000000
					CHANNELS 3 Zrotation Yrotation Xrotation
					JOINT Neck1
					{
						OFFSET -0.325020 10.477440 1.032120
						CHANNELS 3 Zrotation Yrotation Xrotation
						JOINT Head
						{
							OFFSET 0.624420 10.568160 -0.743820
							CHANNELS 3 Zrotation Yrotation Xrotation
							End Site
							{
								OFFSET 0.000000 0.000000 0.000000
							}
						}
					}
				}
				JOINT LeftShoulder
				{
					OFFSET 0.000000 0.000000 0.000000
					CHANNELS 3 Zrotation Yrotation Xrotation
					JOINT LeftArm
					{
						OFFSET 20.174460 7.205340 -1.867260
						CHANNELS 3 Zrotation Yrotation Xrotation
						JOINT LeftForeArm
						{
							OFFSET 29.898000 -0.000000 -0.000000
							CHANNELS 3 Zrotation Yrotation Xrotation
							JOINT LeftHand
							{
								OFFSET 20.901360 -0.000000 -0.000000
								CHANNELS 3 Zrotation Yrotation Xrotation
								JOINT LeftFingerBase
								{
									OFFSET 0.000000 0.000000 0.000000
									CHANNELS 3 Zrotation Yrotation Xrotation
									JOINT LeftHandIndex1
									{
										OFFSET 4.291560 -0.000000 -0.000000
										CHANNELS 3 Zrotation Yrotation Xrotation
										End Site
										{
											OFFSET 0.000000 0.000000 0.000000
										}
									}
								}
								JOINT LThumb
								{
									OFFSET 0.000000 0.000000 0.000000
									CHANNELS 3 Zrotation Yrotation Xrotation
									End Site
									{
										OFFSET 0.000000 0.000000 0.000000
									}
								}
							}
						}
					}
				}
				JOINT RightShoulder
				{
					OFFSET 0.000000 0.000000 0.000000
					CHANNELS 3 Zrotation Yrotation Xrotation
					JOINT RightArm
					{
						OFFSET -18.819600 8.244300 -2.427900
						CHANNELS 3 Zrotation Yrotation Xrotation
						JOINT RightForeArm
						{
							OFFSET -31.451400 -0.000000 -0.000000
							CHANNELS 3 Zrotation Yrotation Xrotation
							JOINT RightHand
							{
								OFFSET -20.665020 -0.000000 -0.000000
								CHANNELS 3 Zrotation Yrotation Xrotation
								JOINT RightFingerBase
								{
									OFFSET 0.000000 0.000000 0.000000
									CHANNELS 3 Zrotation Yrotation Xrotation
									JOINT RightHandIndex1
									{
										OFFSET -3.735180 -0.000000 -0.000000
										CHANNELS 3 Zrotation Yrotation Xrotation
										End Site
										{
											OFFSET 0.000000 0.000000 0.000000
										}
									}
								}
								JOINT RThumb
								{
									OFFSET 0.000000 0.000000 0.000000
									CHANNELS 3 Zrotation Yrotation Xrotation
									End Site
									{
										OFFSET 0.000000 0.000000 0.000000
									}
								}
							}
						}
					}
				}
			}
		}
	}
}
MOTION
Frames:	5
Frame Time:	0.0333333
-75.020958 107.233974 -96.854688 4.840643 -1.263341 0.184050 -3.347107 1.366077 2.883636 -24.835357 -2.822899 -5.778112 -0.928951 4.473459 14.568814 0.830717 -9.034394 4.613359 0.052000 1.471900 4.048200 0.681237 -0.902318 0.683453 11.668747 2.042329 -24.472108 -11.931045 -18.378684 66.072044 0.810271 -6.023584 2.604270 -0.295500 -3.495700 9.661900 -3.395715 0.356086 9.765916 0.744788 0.237204 1.767938 1.037466 0.022283 -3.429896 -11.621758 -5.035395 -15.652114 6.283192 -4.865438 18.022937 4.307400 -2.771400 13.101800 -6.466119 -1.188572 -1.430646 -82.118270 -3.200715 24.844764 16.959916 -23.825615 -4.366459 -1.535823 -2.347203 6.850707 21.287777 23.493533 10.302800 -7.125000 0.000000 0.000000 -8.159500 57.591500 -2.526800 5.151723 1.681479 -1.104053 83.939848 -6.857664 15.416571 -17.009580 25.088655 -4.063400 0.510328 -0.202212 2.505035 -18.238157 10.747288 -3.675500 7.125000 0.000000 0.000000 5.867000 -18.514400 3.719800 
-75.242010 106.678026 -93.724398 5.262868 -0.650079 -0.064475 -3.300535 1.387335 2.957083 -25.408593 -2.863878 -4.740294 -0.603095 5.334823 17.043152 0.946414 -9.374663 0.872241 0.009300 -0.623500 -1.713500 0.684044 -0.829611 0.605532 11.032486 2.961772 -27.271397 -10.432205 -17.787215 61.461818 0.632563 -4.865716 0.431685 -0.081900 -1.846000 5.080200 -4.049554 0.007359 9.768952 0.763448 -0.293211 1.714167 1.531158 -0.263895 -3.455124 -11.756196 -5.001858 -15.513912 6.320034 -4.784261 17.800599 4.348500 -2.743500 12.962300 -6.418983 -1.285163 -1.395455 -81.866504 -4.768394 26.601709 17.419996 -24.379137 -4.618085 -1.479385 -2.321750 5.017911 21.582652 22.576432 10.098500 -7.125000 0.000000 0.000000 -7.379700 56.644100 -2.114400 5.133624 1.727770 -1.103702 83.661955 -7.481696 14.984045 -16.844170 24.885685 -3.986071 0.512746 -0.245496 3.011017 -18.465120 11.701599 -4.057300 7.125000 0.000000 0.000000 5.717000 -17.459400 3.757200 
-75.539562 106.279890 -90.600132 5.404969 -0.417519 0.037567 -3.290854 1.473466 3.119708 -25.455982 -2.522096 -3.131626 -0.552134 5.340109 17.137551 1.040513 -9.812773 -0.741818 0.001200 -0.221300 -0.608000 0.728406 -0.762292 0.497086 10.882718 4.267014 -29.357046 -8.365613 -16.677816 54.731948 0.637987 -4.838946 -0.396085 -0.122600 -2.257100 6.216800 -4.543652 -0.260401 9.519255 0.828864 -0.677200 1.701394 2.020535 -0.499440 -3.286893 -12.134053 -4.971815 -15.627063 6.794073 -4.635972 17.581559 4.637100 -2.654500 12.895500 -6.374747 -1.373019 -1.352924 -81.608611 -6.677084 27.431820 17.913136 -24.958325 -4.882616 -1.332257 -2.452155 4.959071 19.797221 24.095590 9.724100 -7.125000 0.000000 0.000000 -10.226100 57.902600 -3.251600 5.121728 1.804145 -1.086553 83.572570 -7.578269 14.289770 -16.588061 24.554862 -3.869037 0.501006 -0.260298 3.699623 -18.208189 11.848432 -4.048400 7.125000 0.000000 0.000000 5.904600 -17.317200 3.900200 
-75.847350 106.257606 -87.301788 5.645434 -0.364229 0.107170 -3.278366 1.659319 3.411635 -25.544144 -1.334572 -0.193317 -0.805432 4.331220 14.453633 1.008291 -9.813979 -0.744795 0.058400 -1.560000 -4.291100 0.817126 -0.745617 0.368901 10.675716 5.356843 -30.133651 -5.912073 -14.890878 46.016259 1.197038 -7.454922 -0.897765 -0.009400 -0.627200 1.723500 -5.135155 -0.376397 9.178522 0.848027 -0.876577 1.643552 2.386807 -0.634280 -3.197481 -11.907076 -4.926200 -15.847322 6.458198 -4.582355 17.490911 4.445800 -2.640700 12.875200 -6.325695 -1.492768 -1.320295 -81.480739 -7.999985 28.013976 18.252808 -25.344987 -5.067355 -1.299804 -2.360413 5.280810 19.540256 23.130263 9.232600 -7.125000 0.000000 0.000000 -10.027500 56.779800 -2.915300 5.120307 1.788639 -1.114498 83.747989 -8.048290 13.474000 -16.504336 24.445614 -3.830369 0.492168 -0.258231 3.761286 -17.913393 11.798110 -3.961500 7.125000 0.000000 0.000000 6.115300 -17.395700 4.030500 
-76.138272 106.144968 -83.966712 5.955346 -0.156124 0.282523 -3.232292 1.848401 3.669781 -25.640422 -0.070422 2.789877 -1.021294 3.208580 11.518450 0.952000 -10.195895 -0.023700 0.026800 -1.057600 -2.907400 0.937812 -0.733368 0.261722 10.558279 5.627183 -30.246452 -3.524621 -12.449808 36.356112 1.590541 -9.241942 0.509719 -0.023300 -0.984800 2.706900 -5.502787 -0.630578 8.852269 0.793027 -1.227834 1.584269 2.487338 -0.841929 -3.089595 -11.875995 -4.819397 -16.378538 6.527399 -4.390592 17.645934 4.502200 -2.540700 13.045300 -6.284032 -1.559395 -1.313623 -81.465630 -8.915548 28.635077 18.788626 -25.988815 -5.366273 -1.340620 -2.208963 5.701183 20.468957 21.611667 9.120200 -7.125000 0.000000 0.000000 -8.284700 55.291500 -2.103800 5.100926 1.788112 -1.132439 84.118713 -8.221139 12.361241 -16.291375 24.172016 -3.736962 0.470176 -0.277190 4.509260 -17.430416 12.070348 -3.937200 7.125000 0.000000 0.000000 6.467700 -17.136800 4.302500 
